<svg width="128" height="75" viewBox="0 0 128 75" xmlns="http://www.w3.org/2000/svg" xmlns:xlink="http://www.w3.org/1999/xlink">
    <defs>
        <path d="M1.668 0C.751 0 0 .811 0 1.802c0 .992.751 1.803 1.668 1.803h21.07c.917 0 1.666-.811 1.666-1.803C24.404.811 23.655 0 22.738 0H1.668zm0 5.032C.751 5.032 0 5.843 0 6.834c0 .992.751 1.803 1.668 1.803h21.07c.917 0 1.666-.811 1.666-1.803 0-.991-.749-1.802-1.666-1.802H1.668zm0 5.032c-.917 0-1.668.811-1.668 1.803 0 .991.751 1.802 1.668 1.802h21.07c.917 0 1.666-.811 1.666-1.802 0-.992-.749-1.803-1.666-1.803H1.668zm0 5.032c-.917 0-1.668.811-1.668 1.803 0 .991.751 1.802 1.668 1.802h21.07c.917 0 1.666-.811 1.666-1.802 0-.992-.749-1.803-1.666-1.803H1.668zm0 5.032C.751 20.128 0 20.94 0 21.931c0 .991.751 1.802 1.668 1.802h21.07c.917 0 1.666-.811 1.666-1.802s-.749-1.803-1.666-1.803H1.668zm0 5.033c-.917 0-1.668.811-1.668 1.802s.751 1.802 1.668 1.802h21.07c.917 0 1.666-.811 1.666-1.802s-.749-1.802-1.666-1.802H1.668zm0 5.032c-.917 0-1.668.811-1.668 1.802 0 .99.751 1.801 1.668 1.801h21.07c.917 0 1.666-.811 1.666-1.801 0-.991-.749-1.802-1.666-1.802H1.668zm0 5.032c-.917 0-1.668.811-1.668 1.801 0 .992.751 1.803 1.668 1.803h21.07c.917 0 1.666-.811 1.666-1.803 0-.99-.749-1.801-1.666-1.801H1.668zm0 5.032c-.917 0-1.668.81-1.668 1.801 0 .992.751 1.803 1.668 1.803h21.07c.917 0 1.666-.811 1.666-1.803 0-.991-.749-1.801-1.666-1.801H1.668zm0 5.031c-.917 0-1.668.811-1.668 1.803 0 .991.751 1.802 1.668 1.802h21.07c.917 0 1.666-.811 1.666-1.802 0-.992-.749-1.803-1.666-1.803H1.668z" id="db370wjr7a"/>
        <path d="M1.668 0C.751 0 0 .811 0 1.802c0 .992.751 1.803 1.668 1.803h21.07c.917 0 1.666-.811 1.666-1.803C24.404.811 23.655 0 22.738 0H1.668zm0 5.032C.751 5.032 0 5.843 0 6.834c0 .992.751 1.803 1.668 1.803h21.07c.917 0 1.666-.811 1.666-1.803 0-.991-.749-1.802-1.666-1.802H1.668zm0 5.032c-.917 0-1.668.811-1.668 1.803 0 .991.751 1.802 1.668 1.802h21.07c.917 0 1.666-.811 1.666-1.802 0-.992-.749-1.803-1.666-1.803H1.668zm0 5.032c-.917 0-1.668.811-1.668 1.803 0 .991.751 1.802 1.668 1.802h21.07c.917 0 1.666-.811 1.666-1.802 0-.992-.749-1.803-1.666-1.803H1.668zm0 5.032C.751 20.128 0 20.94 0 21.931c0 .991.751 1.802 1.668 1.802h21.07c.917 0 1.666-.811 1.666-1.802s-.749-1.803-1.666-1.803H1.668zm0 5.033c-.917 0-1.668.811-1.668 1.802s.751 1.802 1.668 1.802h21.07c.917 0 1.666-.811 1.666-1.802s-.749-1.802-1.666-1.802H1.668zm0 5.032c-.917 0-1.668.811-1.668 1.802 0 .99.751 1.801 1.668 1.801h21.07c.917 0 1.666-.811 1.666-1.801 0-.991-.749-1.802-1.666-1.802H1.668zm0 5.032c-.917 0-1.668.811-1.668 1.801 0 .992.751 1.803 1.668 1.803h21.07c.917 0 1.666-.811 1.666-1.803 0-.99-.749-1.801-1.666-1.801H1.668zm0 5.032c-.917 0-1.668.81-1.668 1.801 0 .992.751 1.803 1.668 1.803h21.07c.917 0 1.666-.811 1.666-1.803 0-.991-.749-1.801-1.666-1.801H1.668zm0 5.031c-.917 0-1.668.811-1.668 1.803 0 .991.751 1.802 1.668 1.802h21.07c.917 0 1.666-.811 1.666-1.802 0-.992-.749-1.803-1.666-1.803H1.668z" id="12ci755usc"/>
        <path d="M1.668 0C.751 0 0 .811 0 1.803c0 .991.751 1.802 1.668 1.802h21.07c.917 0 1.666-.811 1.666-1.802C24.404.811 23.655 0 22.738 0H1.668z" id="c8wpmezbre"/>
        <path d="M1.668 0C.751 0 0 .81 0 1.801c0 .992.751 1.803 1.668 1.803h21.07c.917 0 1.666-.811 1.666-1.803C24.404.81 23.655 0 22.738 0H1.668z" id="bola7q6xlg"/>
        <path d="M1.668 0C.751 0 0 .811 0 1.801c0 .992.751 1.803 1.668 1.803h21.07c.917 0 1.666-.811 1.666-1.803 0-.99-.749-1.801-1.666-1.801H1.668z" id="82w8raekyi"/>
        <path d="M1.668 0C.751 0 0 .811 0 1.802c0 .99.751 1.801 1.668 1.801h21.07c.917 0 1.666-.811 1.666-1.801C24.404.811 23.655 0 22.738 0H1.668z" id="hfh9nu7olk"/>
        <path d="M1.668 0C.751 0 0 .811 0 1.802s.751 1.802 1.668 1.802h21.07c.917 0 1.666-.811 1.666-1.802S23.655 0 22.738 0H1.668z" id="4uv9relmam"/>
        <path d="M1.668 0C.751 0 0 .812 0 1.803c0 .991.751 1.802 1.668 1.802h21.07c.917 0 1.666-.811 1.666-1.802S23.655 0 22.738 0H1.668z" id="kicrdr21po"/>
        <path d="M1.668 0C.751 0 0 .811 0 1.803c0 .991.751 1.802 1.668 1.802h21.07c.917 0 1.666-.811 1.666-1.802C24.404.811 23.655 0 22.738 0H1.668z" id="xfsvsxk3xq"/>
        <path d="M1.668 0C.751 0 0 .811 0 1.803c0 .991.751 1.802 1.668 1.802h21.07c.917 0 1.666-.811 1.666-1.802C24.404.811 23.655 0 22.738 0H1.668z" id="32s9se9zns"/>
        <path d="M1.668 0C.751 0 0 .811 0 1.802c0 .992.751 1.803 1.668 1.803h21.07c.917 0 1.666-.811 1.666-1.803C24.404.811 23.655 0 22.738 0H1.668z" id="jlg31l9hku"/>
        <path d="M1.668 0C.751 0 0 .811 0 1.802c0 .992.751 1.803 1.668 1.803h21.07c.917 0 1.666-.811 1.666-1.803C24.404.811 23.655 0 22.738 0H1.668z" id="nwevix9svw"/>
        <path d="M1.668 0C.751 0 0 .811 0 1.801c0 .991.751 1.802 1.668 1.802h21.07c.917 0 1.666-.811 1.666-1.802 0-.99-.749-1.801-1.666-1.801H1.668z" id="ws6bzm1qyy"/>
        <path d="M1.668 0C.751 0 0 .811 0 1.802c0 .99.751 1.801 1.668 1.801h21.07c.917 0 1.666-.811 1.666-1.801C24.404.811 23.655 0 22.738 0H1.668z" id="min5dwa2nA"/>
        <path d="M1.668 0C.751 0 0 .811 0 1.803c0 .991.751 1.801 1.668 1.801h21.07c.917 0 1.666-.81 1.666-1.801C24.404.811 23.655 0 22.738 0H1.668z" id="o56n41byvC"/>
        <path d="M1.668 0C.751 0 0 .811 0 1.803c0 .991.751 1.801 1.668 1.801h21.07c.917 0 1.666-.81 1.666-1.801C24.404.811 23.655 0 22.738 0H1.668z" id="ziybw82izE"/>
        <path d="M1.667 0C.75 0 0 .811 0 1.802s.75 1.802 1.667 1.802h21.07c.917 0 1.667-.811 1.667-1.802S23.654 0 22.737 0H1.667zm0 5.032C.75 5.032 0 5.843 0 6.834c0 .99.75 1.801 1.667 1.801h21.07c.917 0 1.667-.811 1.667-1.801 0-.991-.75-1.802-1.667-1.802H1.667zm0 5.032C.75 10.064 0 10.875 0 11.865c0 .992.75 1.803 1.667 1.803h21.07c.917 0 1.667-.811 1.667-1.803 0-.99-.75-1.801-1.667-1.801H1.667zm0 5.032c-.917 0-1.667.81-1.667 1.801 0 .992.75 1.803 1.667 1.803h21.07c.917 0 1.667-.811 1.667-1.803 0-.991-.75-1.801-1.667-1.801H1.667zm0 5.031C.75 20.127 0 20.938 0 21.93c0 .991.75 1.802 1.667 1.802h21.07c.917 0 1.667-.811 1.667-1.802 0-.992-.75-1.803-1.667-1.803H1.667z" id="sz8aaxgn7G"/>
    </defs>
    <g fill="none" fill-rule="evenodd">
        <g transform="translate(0 25.16)">
            <mask id="vl7vm8ljqb" fill="#fff">
                <use xlink:href="#db370wjr7a"/>
            </mask>
            <path d="M1.668 0C.751 0 0 .811 0 1.802c0 .992.751 1.803 1.668 1.803h21.07c.917 0 1.666-.811 1.666-1.803C24.404.811 23.655 0 22.738 0H1.668zm0 5.032C.751 5.032 0 5.843 0 6.834c0 .992.751 1.803 1.668 1.803h21.07c.917 0 1.666-.811 1.666-1.803 0-.991-.749-1.802-1.666-1.802H1.668zm0 5.032c-.917 0-1.668.811-1.668 1.803 0 .991.751 1.802 1.668 1.802h21.07c.917 0 1.666-.811 1.666-1.802 0-.992-.749-1.803-1.666-1.803H1.668zm0 5.032c-.917 0-1.668.811-1.668 1.803 0 .991.751 1.802 1.668 1.802h21.07c.917 0 1.666-.811 1.666-1.802 0-.992-.749-1.803-1.666-1.803H1.668zm0 5.032C.751 20.128 0 20.94 0 21.931c0 .991.751 1.802 1.668 1.802h21.07c.917 0 1.666-.811 1.666-1.802s-.749-1.803-1.666-1.803H1.668zm0 5.033c-.917 0-1.668.811-1.668 1.802s.751 1.802 1.668 1.802h21.07c.917 0 1.666-.811 1.666-1.802s-.749-1.802-1.666-1.802H1.668zm0 5.032c-.917 0-1.668.811-1.668 1.802 0 .99.751 1.801 1.668 1.801h21.07c.917 0 1.666-.811 1.666-1.801 0-.991-.749-1.802-1.666-1.802H1.668zm0 5.032c-.917 0-1.668.811-1.668 1.801 0 .992.751 1.803 1.668 1.803h21.07c.917 0 1.666-.811 1.666-1.803 0-.99-.749-1.801-1.666-1.801H1.668zm0 5.032c-.917 0-1.668.81-1.668 1.801 0 .992.751 1.803 1.668 1.803h21.07c.917 0 1.666-.811 1.666-1.803 0-.991-.749-1.801-1.666-1.801H1.668zm0 5.031c-.917 0-1.668.811-1.668 1.803 0 .991.751 1.802 1.668 1.802h21.07c.917 0 1.666-.811 1.666-1.802 0-.992-.749-1.803-1.666-1.803H1.668z" fill="#FF4722" mask="url(#vl7vm8ljqb)"/>
        </g>
        <g transform="translate(103 25.16)">
            <mask id="zfpdk1buid" fill="#fff">
                <use xlink:href="#12ci755usc"/>
            </mask>
            <path d="M1.668 0C.751 0 0 .811 0 1.802c0 .992.751 1.803 1.668 1.803h21.07c.917 0 1.666-.811 1.666-1.803C24.404.811 23.655 0 22.738 0H1.668zm0 5.032C.751 5.032 0 5.843 0 6.834c0 .992.751 1.803 1.668 1.803h21.07c.917 0 1.666-.811 1.666-1.803 0-.991-.749-1.802-1.666-1.802H1.668zm0 5.032c-.917 0-1.668.811-1.668 1.803 0 .991.751 1.802 1.668 1.802h21.07c.917 0 1.666-.811 1.666-1.802 0-.992-.749-1.803-1.666-1.803H1.668zm0 5.032c-.917 0-1.668.811-1.668 1.803 0 .991.751 1.802 1.668 1.802h21.07c.917 0 1.666-.811 1.666-1.802 0-.992-.749-1.803-1.666-1.803H1.668zm0 5.032C.751 20.128 0 20.94 0 21.931c0 .991.751 1.802 1.668 1.802h21.07c.917 0 1.666-.811 1.666-1.802s-.749-1.803-1.666-1.803H1.668zm0 5.033c-.917 0-1.668.811-1.668 1.802s.751 1.802 1.668 1.802h21.07c.917 0 1.666-.811 1.666-1.802s-.749-1.802-1.666-1.802H1.668zm0 5.032c-.917 0-1.668.811-1.668 1.802 0 .99.751 1.801 1.668 1.801h21.07c.917 0 1.666-.811 1.666-1.801 0-.991-.749-1.802-1.666-1.802H1.668zm0 5.032c-.917 0-1.668.811-1.668 1.801 0 .992.751 1.803 1.668 1.803h21.07c.917 0 1.666-.811 1.666-1.803 0-.99-.749-1.801-1.666-1.801H1.668zm0 5.032c-.917 0-1.668.81-1.668 1.801 0 .992.751 1.803 1.668 1.803h21.07c.917 0 1.666-.811 1.666-1.803 0-.991-.749-1.801-1.666-1.801H1.668zm0 5.031c-.917 0-1.668.811-1.668 1.803 0 .991.751 1.802 1.668 1.802h21.07c.917 0 1.666-.811 1.666-1.802 0-.992-.749-1.803-1.666-1.803H1.668z" fill="#8736C1" mask="url(#zfpdk1buid)"/>
        </g>
        <g fill="#DADADA">
            <path d="M22.737 20.128H1.667C.75 20.128 0 20.94 0 21.93s.75 1.802 1.667 1.802h21.07c.917 0 1.667-.81 1.667-1.802 0-.99-.75-1.802-1.667-1.802M22.737 15.096H1.667C.75 15.096 0 15.907 0 16.898S.75 18.7 1.667 18.7h21.07c.917 0 1.667-.81 1.667-1.802 0-.99-.75-1.802-1.667-1.802M22.737 10.064H1.667C.75 10.064 0 10.875 0 11.866s.75 1.802 1.667 1.802h21.07c.917 0 1.667-.81 1.667-1.802 0-.99-.75-1.802-1.667-1.802M22.737 5.032H1.667C.75 5.032 0 5.843 0 6.834s.75 1.802 1.667 1.802h21.07c.917 0 1.667-.81 1.667-1.802 0-.99-.75-1.802-1.667-1.802M22.737 0H1.667C.75 0 0 .811 0 1.802s.75 1.802 1.667 1.802h21.07c.917 0 1.667-.811 1.667-1.802S23.654 0 22.737 0"/>
        </g>
        <path d="M125.737 20.128h-21.07c-.917 0-1.667.811-1.667 1.802s.75 1.802 1.667 1.802h21.07c.917 0 1.667-.81 1.667-1.802 0-.99-.75-1.802-1.667-1.802M125.737 15.096h-21.07c-.917 0-1.667.811-1.667 1.802s.75 1.802 1.667 1.802h21.07c.917 0 1.667-.81 1.667-1.802 0-.99-.75-1.802-1.667-1.802M125.737 10.064h-21.07c-.917 0-1.667.811-1.667 1.802s.75 1.802 1.667 1.802h21.07c.917 0 1.667-.81 1.667-1.802 0-.99-.75-1.802-1.667-1.802" fill="#8736C1"/>
        <path d="M125.737 5.032h-21.07c-.917 0-1.667.811-1.667 1.802s.75 1.802 1.667 1.802h21.07c.917 0 1.667-.81 1.667-1.802 0-.99-.75-1.802-1.667-1.802M125.737 0h-21.07C103.75 0 103 .811 103 1.802s.75 1.802 1.667 1.802h21.07c.917 0 1.667-.811 1.667-1.802S126.654 0 125.737 0" fill="#DADADA"/>
        <g transform="translate(34.444 70.448)">
            <mask id="3uoduo8dsf" fill="#fff">
                <use xlink:href="#c8wpmezbre"/>
            </mask>
            <path d="M1.668 0C.751 0 0 .811 0 1.803c0 .991.751 1.802 1.668 1.802h21.07c.917 0 1.666-.811 1.666-1.802C24.404.811 23.655 0 22.738 0H1.668z" fill="#8736C1" mask="url(#3uoduo8dsf)"/>
        </g>
        <g transform="translate(34.444 65.417)">
            <mask id="u67xhea73h" fill="#fff">
                <use xlink:href="#bola7q6xlg"/>
            </mask>
            <path d="M1.668 0C.751 0 0 .81 0 1.801c0 .992.751 1.803 1.668 1.803h21.07c.917 0 1.666-.811 1.666-1.803C24.404.81 23.655 0 22.738 0H1.668z" fill="#8736C1" mask="url(#u67xhea73h)"/>
        </g>
        <g transform="translate(34.444 60.385)">
            <mask id="1o664rn8hj" fill="#fff">
                <use xlink:href="#82w8raekyi"/>
            </mask>
            <path d="M1.668 0C.751 0 0 .811 0 1.801c0 .992.751 1.803 1.668 1.803h21.07c.917 0 1.666-.811 1.666-1.803 0-.99-.749-1.801-1.666-1.801H1.668z" fill="#8736C1" mask="url(#1o664rn8hj)"/>
        </g>
        <g transform="translate(34.444 55.353)">
            <mask id="lg0n9fqs6l" fill="#fff">
                <use xlink:href="#hfh9nu7olk"/>
            </mask>
            <path d="M1.668 0C.751 0 0 .811 0 1.802c0 .99.751 1.801 1.668 1.801h21.07c.917 0 1.666-.811 1.666-1.801C24.404.811 23.655 0 22.738 0H1.668z" fill="#8736C1" mask="url(#lg0n9fqs6l)"/>
        </g>
        <g transform="translate(34.444 50.32)">
            <mask id="85ctb4krwn" fill="#fff">
                <use xlink:href="#4uv9relmam"/>
            </mask>
            <path d="M1.668 0C.751 0 0 .811 0 1.802s.751 1.802 1.668 1.802h21.07c.917 0 1.666-.811 1.666-1.802S23.655 0 22.738 0H1.668z" fill="#8736C1" mask="url(#85ctb4krwn)"/>
        </g>
        <g transform="translate(34.444 45.288)">
            <mask id="hqfidoajfp" fill="#fff">
                <use xlink:href="#kicrdr21po"/>
            </mask>
            <path d="M1.668 0C.751 0 0 .812 0 1.803c0 .991.751 1.802 1.668 1.802h21.07c.917 0 1.666-.811 1.666-1.802S23.655 0 22.738 0H1.668z" fill="#8736C1" mask="url(#hqfidoajfp)"/>
        </g>
        <g transform="translate(34.444 40.256)">
            <mask id="pzdyrpvknr" fill="#fff">
                <use xlink:href="#xfsvsxk3xq"/>
            </mask>
            <path d="M1.668 0C.751 0 0 .811 0 1.803c0 .991.751 1.802 1.668 1.802h21.07c.917 0 1.666-.811 1.666-1.802C24.404.811 23.655 0 22.738 0H1.668z" fill="#8736C1" mask="url(#pzdyrpvknr)"/>
        </g>
        <g transform="translate(34.444 35.224)">
            <mask id="rc06fnvjit" fill="#fff">
                <use xlink:href="#32s9se9zns"/>
            </mask>
            <path d="M1.668 0C.751 0 0 .811 0 1.803c0 .991.751 1.802 1.668 1.802h21.07c.917 0 1.666-.811 1.666-1.802C24.404.811 23.655 0 22.738 0H1.668z" fill="#8736C1" mask="url(#rc06fnvjit)"/>
        </g>
        <g transform="translate(34.444 30.192)">
            <mask id="27fe5n883v" fill="#fff">
                <use xlink:href="#jlg31l9hku"/>
            </mask>
            <path d="M1.668 0C.751 0 0 .811 0 1.802c0 .992.751 1.803 1.668 1.803h21.07c.917 0 1.666-.811 1.666-1.803C24.404.811 23.655 0 22.738 0H1.668z" fill="#8736C1" mask="url(#27fe5n883v)"/>
        </g>
        <g transform="translate(34.444 25.16)">
            <mask id="7nfqiyvxkx" fill="#fff">
                <use xlink:href="#nwevix9svw"/>
            </mask>
            <path d="M1.668 0C.751 0 0 .811 0 1.802c0 .992.751 1.803 1.668 1.803h21.07c.917 0 1.666-.811 1.666-1.803C24.404.811 23.655 0 22.738 0H1.668z" fill="#8736C1" mask="url(#7nfqiyvxkx)"/>
        </g>
        <g transform="translate(34.444 20.129)">
            <mask id="ga72smjhdz" fill="#fff">
                <use xlink:href="#ws6bzm1qyy"/>
            </mask>
            <path d="M1.668 0C.751 0 0 .811 0 1.801c0 .991.751 1.802 1.668 1.802h21.07c.917 0 1.666-.811 1.666-1.802 0-.99-.749-1.801-1.666-1.801H1.668z" fill="#8736C1" mask="url(#ga72smjhdz)"/>
        </g>
        <g transform="translate(34.444 15.097)">
            <mask id="1jx0i6gq2B" fill="#fff">
                <use xlink:href="#min5dwa2nA"/>
            </mask>
            <path d="M1.668 0C.751 0 0 .811 0 1.802c0 .99.751 1.801 1.668 1.801h21.07c.917 0 1.666-.811 1.666-1.801C24.404.811 23.655 0 22.738 0H1.668z" fill="#8736C1" mask="url(#1jx0i6gq2B)"/>
        </g>
        <g transform="translate(34.444 10.064)">
            <mask id="cgus3iwuaD" fill="#fff">
                <use xlink:href="#o56n41byvC"/>
            </mask>
            <path d="M1.668 0C.751 0 0 .811 0 1.803c0 .991.751 1.801 1.668 1.801h21.07c.917 0 1.666-.81 1.666-1.801C24.404.811 23.655 0 22.738 0H1.668z" fill="#8736C1" mask="url(#cgus3iwuaD)"/>
        </g>
        <g transform="translate(34.444 5.032)">
            <mask id="vb2frghg6F" fill="#fff">
                <use xlink:href="#ziybw82izE"/>
            </mask>
            <path d="M1.668 0C.751 0 0 .811 0 1.803c0 .991.751 1.801 1.668 1.801h21.07c.917 0 1.666-.81 1.666-1.801C24.404.811 23.655 0 22.738 0H1.668z" fill="#8736C1" mask="url(#vb2frghg6F)"/>
        </g>
        <path d="M57.181 0h-21.07c-.917 0-1.667.811-1.667 1.802s.75 1.802 1.667 1.802h21.07c.917 0 1.667-.811 1.667-1.802S58.098 0 57.181 0" fill="#DADADA"/>
        <g transform="translate(68.751 50.32)">
            <mask id="nyv9fayhpH" fill="#fff">
                <use xlink:href="#sz8aaxgn7G"/>
            </mask>
            <path d="M1.667 0C.75 0 0 .811 0 1.802s.75 1.802 1.667 1.802h21.07c.917 0 1.667-.811 1.667-1.802S23.654 0 22.737 0H1.667zm0 5.032C.75 5.032 0 5.843 0 6.834c0 .99.75 1.801 1.667 1.801h21.07c.917 0 1.667-.811 1.667-1.801 0-.991-.75-1.802-1.667-1.802H1.667zm0 5.032C.75 10.064 0 10.875 0 11.865c0 .992.75 1.803 1.667 1.803h21.07c.917 0 1.667-.811 1.667-1.803 0-.99-.75-1.801-1.667-1.801H1.667zm0 5.032c-.917 0-1.667.81-1.667 1.801 0 .992.75 1.803 1.667 1.803h21.07c.917 0 1.667-.811 1.667-1.803 0-.991-.75-1.801-1.667-1.801H1.667zm0 5.031C.75 20.127 0 20.938 0 21.93c0 .991.75 1.802 1.667 1.802h21.07c.917 0 1.667-.811 1.667-1.802 0-.992-.75-1.803-1.667-1.803H1.667z" fill="#FF4722" mask="url(#nyv9fayhpH)"/>
        </g>
        <g fill="#DADADA">
            <path d="M91.488 45.288h-21.07c-.917 0-1.667.811-1.667 1.802s.75 1.802 1.667 1.802h21.07c.917 0 1.667-.81 1.667-1.802 0-.99-.75-1.802-1.667-1.802M91.488 40.256h-21.07c-.917 0-1.667.811-1.667 1.802s.75 1.802 1.667 1.802h21.07c.917 0 1.667-.81 1.667-1.802 0-.99-.75-1.802-1.667-1.802M91.488 35.224h-21.07c-.917 0-1.667.811-1.667 1.802s.75 1.802 1.667 1.802h21.07c.917 0 1.667-.81 1.667-1.802 0-.99-.75-1.802-1.667-1.802M91.488 30.192h-21.07c-.917 0-1.667.811-1.667 1.802s.75 1.802 1.667 1.802h21.07c.917 0 1.667-.81 1.667-1.802 0-.99-.75-1.802-1.667-1.802M91.488 25.16h-21.07c-.917 0-1.667.811-1.667 1.802s.75 1.802 1.667 1.802h21.07c.917 0 1.667-.81 1.667-1.802 0-.99-.75-1.802-1.667-1.802M91.488 20.128h-21.07c-.917 0-1.667.811-1.667 1.802s.75 1.802 1.667 1.802h21.07c.917 0 1.667-.81 1.667-1.802 0-.99-.75-1.802-1.667-1.802M91.488 15.096h-21.07c-.917 0-1.667.811-1.667 1.802s.75 1.802 1.667 1.802h21.07c.917 0 1.667-.81 1.667-1.802 0-.99-.75-1.802-1.667-1.802M91.488 10.064h-21.07c-.917 0-1.667.811-1.667 1.802s.75 1.802 1.667 1.802h21.07c.917 0 1.667-.81 1.667-1.802 0-.99-.75-1.802-1.667-1.802M91.488 5.032h-21.07c-.917 0-1.667.811-1.667 1.802s.75 1.802 1.667 1.802h21.07c.917 0 1.667-.81 1.667-1.802 0-.99-.75-1.802-1.667-1.802M91.488 0h-21.07c-.917 0-1.667.811-1.667 1.802s.75 1.802 1.667 1.802h21.07c.917 0 1.667-.811 1.667-1.802S92.405 0 91.488 0"/>
        </g>
    </g>
</svg>
