<svg width="48" height="48" viewBox="0 0 48 48" fill="none" xmlns="http://www.w3.org/2000/svg">
<path d="M19.5 3.00024C15.3633 3.00024 12 6.36353 12 10.5002C12 10.7112 12.0469 10.9104 12.0703 11.1096C12.9961 10.6995 13.9805 10.3362 15.0469 10.0549C15.2812 7.78149 17.168 6.00024 19.5 6.00024C21.457 6.00024 23.1094 7.26587 23.7188 9.00024C24.3984 9.01196 25.0547 9.02368 25.7227 9.07056C25.9688 8.70728 26.2734 8.37915 26.5547 8.02759C25.5234 5.10962 22.7695 3.00024 19.5 3.00024ZM34.4414 6.00024C34.3359 6.00024 34.2422 6.02368 34.1367 6.04712C32.5898 6.43384 31.1484 7.42993 29.8594 8.71899C28.875 9.71509 28.1953 11.0159 27.5742 12.3284C26.332 12.1643 25.0781 12.0002 23.625 12.0002C18.9609 12.0002 14.6602 12.7385 11.3789 14.8362C9.86719 15.7971 8.61328 17.0979 7.6875 18.6682C7.48828 18.5862 7.27734 18.4807 7.03125 18.3284C6.44531 17.9182 6 17.4729 6 16.5002C6 16.2307 6.12891 15.7737 6.375 15.4807C6.60938 15.1877 6.85547 15.0002 7.5 15.0002C8.03906 15.012 8.54297 14.719 8.8125 14.262C9.09375 13.7932 9.09375 13.2073 8.8125 12.7385C8.54297 12.2815 8.03906 11.9885 7.5 12.0002C6.03516 12.0002 4.78125 12.6799 4.05469 13.5706C3.31641 14.4729 3 15.5159 3 16.5002C3 18.5862 4.24219 20.0627 5.34375 20.8127C5.77734 21.1057 6.17578 21.2581 6.53906 21.4104C6.19922 22.6057 6 23.8948 6 25.3127C6 29.4026 8.48438 32.9065 12 35.344V40.5002C12 41.3323 12.668 42.0002 13.5 42.0002H19.5C20.332 42.0002 21 41.3323 21 40.5002V38.719C21.9258 38.8362 22.8281 39.0002 23.8125 39.0002C24.9141 39.0002 25.957 38.8127 27 38.6721V40.5002C27.0117 41.3323 27.6797 42.0002 28.5 42.0002H34.5C35.332 42.0002 36 41.3323 36 40.5002V35.2502C37.8516 33.9846 39.5391 32.5549 40.5703 30.7502C40.5703 30.7385 40.5703 30.7385 40.582 30.7385C40.5586 30.762 40.7578 30.4924 41.0156 30.3167C41.2734 30.1292 41.5898 30.0002 42 30.0002H43.5C44.332 30.0002 45 29.3323 45 28.5002V22.5002C45 21.6682 44.332 21.0002 43.5 21.0002H42C41.6016 21.0002 41.3555 20.8948 41.2031 20.8127C41.0625 20.719 41.0273 20.4963 41.1562 20.8713C40.2539 18.4104 38.4492 16.5823 36.0586 15.0706L36 7.48853C36 7.07837 35.8242 6.69165 35.5312 6.4104C35.2383 6.12915 34.8516 5.98853 34.4414 6.00024ZM33.0234 10.1604L33.0586 14.7659L33.8789 14.3909C33.3633 14.6252 33.0234 15.1292 33 15.6917C32.9883 16.2542 33.2812 16.7932 33.7852 17.0627C36.2695 18.4221 37.5938 19.8401 38.3438 21.9026C38.6133 22.6292 39.0234 22.9807 39.6211 23.344C40.2305 23.7307 41.0391 24.0002 42 24.0002V27.0002C40.9102 27.0002 39.9961 27.3752 39.3281 27.8323C38.6719 28.2776 38.25 28.7463 37.9688 29.262C37.0781 30.8323 35.6133 32.2737 33.7383 33.4104C33.2812 33.6799 33 34.1604 33 34.6877V39.0002H30V37.0081C30.0117 36.551 29.8008 36.1292 29.4492 35.8362C29.0977 35.5549 28.6289 35.4377 28.1953 35.5315C26.7891 35.8362 25.3242 36.0002 23.8125 36.0002C22.418 36.0002 21.082 35.8479 19.8047 35.5784C19.3594 35.4963 18.9023 35.6135 18.5508 35.8948C18.1992 36.176 18 36.6096 18 37.0549V39.0002H15V34.7581C15 34.2307 14.7305 33.7502 14.2734 33.469C10.957 31.4417 9 28.5002 9 25.3127C9 21.2932 10.4648 18.9729 12.9844 17.3674C15.5156 15.7502 19.2891 15.0002 23.625 15.0002C25.2539 15.0002 26.707 15.1526 28.0781 15.3752C28.8281 15.4924 29.543 15.0354 29.7539 14.3206C30.1523 13.1135 30.9961 11.8362 31.9922 10.8284C32.3555 10.4768 32.6484 10.4299 33.0234 10.1604ZM34.5 21.0002C33.6797 21.0002 33 21.6682 33 22.5002C33 23.3323 33.6797 24.0002 34.5 24.0002C35.332 24.0002 36 23.3323 36 22.5002C36 21.6682 35.332 21.0002 34.5 21.0002Z" fill="url(#paint0_linear)"/>
<defs>
<linearGradient id="paint0_linear" x1="45" y1="3.00024" x2="0.192721" y2="38.4522" gradientUnits="userSpaceOnUse">
<stop stop-color="#1B9EE0"/>
<stop offset="1" stop-color="#1BC8E0"/>
<stop offset="1" stop-color="#14D3ED"/>
</linearGradient>
</defs>
</svg>
