<svg width="48" height="48" viewBox="0 0 48 48" fill="none" xmlns="http://www.w3.org/2000/svg">
<path d="M15.1406 6.00024C13.6074 6.00024 12.1754 6.78638 11.3496 8.07446L6.38672 15.4631C2.86221 16.072 0 18.8088 0 22.5002V25.5002C0 27.9684 2.01884 30.0057 4.48828 30.0237L6 30.0354V30.0002C6 33.2958 8.70441 36.0002 12 36.0002C15.2956 36.0002 18 33.2958 18 30.0002H27V27.0002H15V30.0002C15 31.6727 13.6724 33.0002 12 33.0002C10.3276 33.0002 9 31.6727 9 30.0002V27.0588L4.51172 27.0237C3.68116 27.0176 3 26.3321 3 25.5002V22.5002C3 19.9952 4.99495 18.0002 7.5 18.0002H8.29688L13.8691 9.70337L13.875 9.69165C14.1532 9.25773 14.6279 9.00024 15.1406 9.00024H26.3965C27.2865 9.00024 28.1282 9.39519 28.6992 10.0784L35.1445 17.8127L42.8262 20.01C44.1202 20.3797 45 21.5495 45 22.8928V24.0002H48V22.8928C48 20.2221 46.2164 17.8615 43.6465 17.1272L36.8555 15.1877L31.002 8.15649C29.8629 6.79367 28.1764 6.00024 26.3965 6.00024H15.1406ZM37.5 24.0002C33.0667 24.0002 30 27.7002 30 31.5002V33.0002H28.5C28.1022 33.0003 27.7207 33.1583 27.4394 33.4396C27.1581 33.7209 27 34.1024 27 34.5002V46.5002C27 46.8981 27.1581 47.2796 27.4394 47.5609C27.7207 47.8422 28.1022 48.0002 28.5 48.0002H46.5C46.8978 48.0002 47.2793 47.8422 47.5606 47.5609C47.8419 47.2796 48 46.8981 48 46.5002V34.5002C48 34.1024 47.8419 33.7209 47.5606 33.4396C47.2793 33.1583 46.8978 33.0003 46.5 33.0002H45V31.5002C45 27.0669 41.3 24.0002 37.5 24.0002ZM37.5 27.0002C39.7 27.0002 42 28.7336 42 31.5002V33.0002H33V31.5002C33 29.3002 34.7333 27.0002 37.5 27.0002ZM30 36.0002H45V45.0002H30V36.0002ZM37.5 39.0002C37.1022 39.0002 36.7206 39.1583 36.4393 39.4396C36.158 39.7209 36 40.1024 36 40.5002C36 40.8981 36.158 41.2796 36.4393 41.5609C36.7206 41.8422 37.1022 42.0002 37.5 42.0002C37.8978 42.0002 38.2794 41.8422 38.5607 41.5609C38.842 41.2796 39 40.8981 39 40.5002C39 40.1024 38.842 39.7209 38.5607 39.4396C38.2794 39.1583 37.8978 39.0002 37.5 39.0002Z" fill="url(#paint0_linear)"/>
<defs>
<linearGradient id="paint0_linear" x1="48" y1="6.00024" x2="-0.835603" y2="47.0051" gradientUnits="userSpaceOnUse">
<stop stop-color="#1B9EE0"/>
<stop offset="1" stop-color="#1BC8E0"/>
<stop offset="1" stop-color="#14D3ED"/>
</linearGradient>
</defs>
</svg>
