<svg width="73" height="85" viewBox="0 0 73 85" xmlns="http://www.w3.org/2000/svg">
    <g fill="none" fill-rule="evenodd">
        <path stroke="#000" stroke-linecap="round" stroke-linejoin="round" d="M3.159 84.02H72.21"/>
        <path d="M64.598 54.853c-1.234-5.424-3.578-9.944-7.94-13.493.65-2.785 2.597-6.537 2.597-6.537-3.188 0-5.927 1.373-8.304 3.249-4.366-2.116-9.352-3.249-14.853-3.249-15.831 0-28.664 10.03-28.664 22.401 0 6.217 3.242 11.842 8.476 15.9a10.137 10.137 0 0 1 3.85 6.749l.521 4.147h6.493l1.597-5.22c2.458.537 5.05.825 7.727.825 2.677 0 5.269-.288 7.727-.825l1.597 5.22h6.492l.918-7.31a2.894 2.894 0 0 1 1.317-2.086c4.247-2.694 7.488-6.32 9.215-10.48l3.204-.497a1.624 1.624 0 0 0 1.365-1.44l.693-6.818-4.028-.536z" fill="#FFF"/>
        <path fill="#FFD1D1" d="M36.098 34.823z"/>
        <path d="M7.434 56.158a4.155 4.155 0 0 1-5.803-.932 3.324 3.324 0 0 1 .746-4.642 2.66 2.66 0 0 1 2.937-.12M50.95 38.072c-1.806 1.489-2.672 2.832-2.672 2.832M26.932 78.446c2.928.789 6.093 1.179 9.364 1.179 3.27 0 6.412-.479 9.34-1.266" stroke="#000" stroke-linecap="round" stroke-linejoin="round"/>
        <path d="M64.598 54.853c-1.234-5.424-3.578-9.944-7.94-13.493.65-2.785 2.597-6.537 2.597-6.537-3.188 0-5.927 1.373-8.304 3.249-4.366-2.116-9.352-3.249-14.853-3.249-15.831 0-28.664 10.03-28.664 22.401 0 6.217 3.242 11.842 8.476 15.9a10.137 10.137 0 0 1 3.85 6.749l.521 4.147h6.493l1.597-5.22c2.458.537 5.05.825 7.727.825 2.677 0 5.269-.288 7.727-.825l1.597 5.22h6.492l.918-7.31a2.894 2.894 0 0 1 1.317-2.086c4.247-2.694 7.488-6.32 9.215-10.48l3.204-.497a1.624 1.624 0 0 0 1.365-1.44l.693-6.818-4.028-.536z" stroke="#000" stroke-linecap="round" stroke-linejoin="round"/>
        <path d="M17.604 23.3c0-9.665 7.835-17.5 17.5-17.5s17.5 7.835 17.5 17.5-7.835 17.5-17.5 17.5-17.5-7.835-17.5-17.5" fill="#FFF"/>
        <path d="M21.86 23.3c0-7.314 5.93-13.243 13.244-13.243s13.243 5.93 13.243 13.243c0 7.314-5.93 13.243-13.243 13.243-7.314 0-13.243-5.929-13.243-13.243" fill="#FFE167"/>
        <path d="M35.104 36.543c-7.302 0-13.243-5.941-13.243-13.243 0-7.302 5.94-13.243 13.243-13.243 7.302 0 13.243 5.94 13.243 13.243 0 7.302-5.941 13.243-13.243 13.243" fill="#FFF"/>
        <path d="M17.604 23.3c0-9.665 7.835-17.5 17.5-17.5s17.5 7.835 17.5 17.5-7.835 17.5-17.5 17.5-17.5-7.835-17.5-17.5z" stroke="#8736C1" stroke-linecap="round" stroke-linejoin="round"/>
        <path d="M21.86 23.3c0-7.314 5.93-13.243 13.244-13.243s13.243 5.93 13.243 13.243c0 7.314-5.93 13.243-13.243 13.243-7.314 0-13.243-5.929-13.243-13.243z" stroke="#FF4722" stroke-linecap="round" stroke-linejoin="round"/>
        <path d="M38.486 19.135c-1.106-1.053-2.714-1.466-4.187-1.28-1.236.157-2.697 1.121-2.721 2.523-.026 1.489 1.577 2.237 2.81 2.538 1.283.312 2.732.42 3.796 1.29 1.29 1.055 1.04 2.81-.248 3.738-.744.546-1.722.844-2.763.844-1.67-.016-3.097-.87-4-1.585M35.104 16.221v1.591M35.104 28.787v1.592" stroke="#FF4722" stroke-linecap="round" stroke-linejoin="round"/>
        <path d="M26.1 44.434h18.545v-5.799c-2.688-.717-5.546-1.079-8.547-1.079-3.542 0-6.92.541-9.998 1.52v5.358z" fill="#FFF"/>
        <path d="M44.645 38.635c-2.688-.717-5.546-1.079-8.547-1.079-3.542 0-6.92.541-9.998 1.521M56.107 59.616c.735 1.43 2.492 2.873 4.07 3.178M57.164 58.675l-2.115 1.745" stroke="#000" stroke-linecap="round" stroke-linejoin="round"/>
        <path d="M59.466 52.385a1.16 1.16 0 1 1 0 2.32 1.16 1.16 0 0 1 0-2.32" fill="#000"/>
    </g>
</svg>
