<svg width="48" height="48" viewBox="0 0 48 48" fill="none" xmlns="http://www.w3.org/2000/svg">
<path d="M24 3.00024C19.59 3.00024 12.9626 4.53118 9.39258 5.46118C7.41258 5.94118 6 7.73884 6 9.80884V19.5002C6 33.8102 22.5014 44.34 23.1914 44.76L24 45.2698L24.8086 44.76C24.8686 44.73 25.0477 44.5826 25.3477 44.4026C24.1477 43.3226 23.1614 41.9995 22.4414 40.5295H22.4121C17.9721 37.1095 9 29.0702 9 19.5002V9.80884C9 9.11884 9.45258 8.51743 10.1426 8.36743C12.9026 7.64743 19.77 6.00024 24 6.00024C28.23 6.00024 35.0974 7.64743 37.8574 8.36743C38.5174 8.51743 39 9.11884 39 9.80884V19.5002C39 20.2502 38.9377 20.9709 38.8477 21.7209C39.8377 22.0509 40.7726 22.4993 41.6426 23.0393C41.8826 21.8693 42 20.7002 42 19.5002V9.80884C42 7.73884 40.6174 5.97118 38.6074 5.46118C35.0374 4.53118 28.41 3.00024 24 3.00024ZM33 24.0002V27.1526H32.9941C32.0421 27.3487 31.1601 27.7325 30.375 28.2542L28.1309 26.01L26.0098 28.1311L28.2539 30.3752C27.7322 31.1603 27.3485 32.0482 27.1523 33.0002H24V36.0002H27.1523V36.0061C27.3485 36.9582 27.7322 37.8402 28.2539 38.6252L26.0098 40.8694L28.1309 42.9905L30.375 40.7463C31.1601 41.268 32.0479 41.6518 33 41.8479V45.0002H36V41.8479H36.0059C36.9579 41.6518 37.8399 41.268 38.625 40.7463L40.8691 42.9905L42.9902 40.8694L40.7461 38.6252C41.2678 37.8402 41.6515 36.9523 41.8477 36.0002H45V33.0002H41.8477V32.9944C41.6515 32.0423 41.2678 31.1603 40.7461 30.3752L42.9902 28.1311L40.8691 26.01L38.625 28.2542C37.8399 27.7325 36.9521 27.3487 36 27.1526V24.0002H33ZM34.5 30.0002C37.005 30.0002 39 31.9952 39 34.5002C39 37.0053 37.005 39.0002 34.5 39.0002C31.995 39.0002 30 37.0053 30 34.5002C30 31.9952 31.995 30.0002 34.5 30.0002Z" fill="url(#paint0_linear)"/>
<defs>
<linearGradient id="paint0_linear" x1="45" y1="3.00024" x2="-1.35353" y2="34.4217" gradientUnits="userSpaceOnUse">
<stop stop-color="#1B9EE0"/>
<stop offset="1" stop-color="#1BC8E0"/>
<stop offset="1" stop-color="#14D3ED"/>
</linearGradient>
</defs>
</svg>
